<svg xmlns="http://www.w3.org/2000/svg" version="1.1" xmlns:xlink="http://www.w3.org/1999/xlink" xmlns:svgjs="http://svgjs.com/svgjs" width="1440" height="761" preserveAspectRatio="none" viewBox="0 0 1440 761"><g mask="url(&quot;#SvgjsMask1129&quot;)" fill="none"><rect width="1440" height="761" x="0" y="0" fill="#0e2a47"></rect><rect width="480.8" height="480.8" clip-path="url(&quot;#SvgjsClipPath1130&quot;)" x="129.2" y="-162.08" fill="url(#SvgjsPattern1131)" transform="rotate(29.51, 369.6, 78.32)"></rect><rect width="372" height="372" clip-path="url(&quot;#SvgjsClipPath1132&quot;)" x="373.73" y="-73.19" fill="url(#SvgjsPattern1133)" transform="rotate(112.38, 559.73, 112.81)"></rect><path d="M935.49 271.87 L994.1899999999999 84.3L1048.1219773673447 261.3669773673448z" stroke="#e73635" stroke-width="1" stroke-dasharray="2, 2"></path><path d="M1215.04 504.35L1209.01 515.65 1196.66 512.24 1190.63 523.54 1178.28 520.13 1172.25 531.43 1159.91 528.02" stroke="#e73635" stroke-width="2.23"></path><circle r="103.02919863347438" cx="1316.56" cy="538.4" stroke="#e73635" stroke-width="1.33" stroke-dasharray="2, 2"></circle><path d="M919.22 187.53 L951.52 270.7L977.1260400635388 187.35895993646122z" fill="#037b0b"></path><circle r="63.416666666666664" cx="949.18" cy="313.56" stroke="#e73635" stroke-width="1" stroke-dasharray="3, 2"></circle><rect width="229.84" height="229.84" clip-path="url(&quot;#SvgjsClipPath1134&quot;)" x="1289.56" y="579.87" fill="url(#SvgjsPattern1135)" transform="rotate(301.68, 1404.48, 694.79)"></rect><rect width="339.68" height="339.68" clip-path="url(&quot;#SvgjsClipPath1136&quot;)" x="586.89" y="377.34" fill="url(#SvgjsPattern1137)" transform="rotate(344.52, 756.73, 547.18)"></rect></g><defs><mask id="SvgjsMask1129"><rect width="1440" height="761" fill="#ffffff"></rect></mask><pattern x="0" y="0" width="12.02" height="12.02" patternUnits="userSpaceOnUse" id="SvgjsPattern1131"><path d="M6.01 1L6.01 11.02M1 6.01L11.02 6.01" stroke="#d3b714" fill="none" stroke-width="1.45"></path></pattern><clipPath id="SvgjsClipPath1130"><circle r="120.2" cx="369.6" cy="78.32"></circle></clipPath><pattern x="0" y="0" width="372" height="6" patternUnits="userSpaceOnUse" id="SvgjsPattern1133"><rect width="372" height="3" x="0" y="0" fill="#d3b714"></rect><rect width="372" height="3" x="0" y="3" fill="rgba(0, 0, 0, 0)"></rect></pattern><clipPath id="SvgjsClipPath1132"><circle r="93" cx="559.73" cy="112.81"></circle></clipPath><pattern x="0" y="0" width="229.84" height="6.76" patternUnits="userSpaceOnUse" id="SvgjsPattern1135"><rect width="229.84" height="3.38" x="0" y="0" fill="#e73635"></rect><rect width="229.84" height="3.38" x="0" y="3.38" fill="rgba(0, 0, 0, 0)"></rect></pattern><clipPath id="SvgjsClipPath1134"><circle r="57.46" cx="1404.48" cy="694.79"></circle></clipPath><pattern x="0" y="0" width="7.72" height="7.72" patternUnits="userSpaceOnUse" id="SvgjsPattern1137"><path d="M3.86 1L3.86 6.72M1 3.86L6.72 3.86" stroke="#d3b714" fill="none" stroke-width="2.17"></path></pattern><clipPath id="SvgjsClipPath1136"><circle r="84.92" cx="756.73" cy="547.18"></circle></clipPath></defs></svg>